<svg width="109" height="31" viewBox="0 0 109 31" fill="none" xmlns="http://www.w3.org/2000/svg">
<path d="M43 17.05C42.2044 17.05 41.4413 16.7234 40.8787 16.142C40.3161 15.5607 40 14.7722 40 13.95V7.75H43V13.95H46V9.17939e-07L67 0V31H46V17.05H43ZM49 27.9H64V3.1H49V27.9ZM52 20.15H55V17.05H58V20.15H61V23.25H58V26.35H55V23.25H52V20.15ZM52 10.85V7.74535H55V4.64535H58.006V7.74535H61.006V10.85H58.006V13.95H55V10.85H52ZM55.006 10.8438H58V7.75H55.006V10.8438Z" fill="#08D9D6"/>
<path d="M10.52 7H7V24.6H10.52V7Z" fill="#08D9D6"/>
<path d="M17.56 7H14.04V24.6H17.56V7Z" fill="#08D9D6"/>
<path d="M35.8 16L21.4 25V7L35.8 16Z" fill="#08D9D6"/>
<path d="M71.8603 0.862501H73.8249V9H71.8603V0.862501ZM73.0925 2.47837V0.862501H74.6851C75.3749 0.862501 75.9523 0.971001 76.4173 1.188C76.89 1.39725 77.2465 1.6995 77.4868 2.09475C77.727 2.49 77.8471 2.96662 77.8471 3.52462C77.8471 4.06712 77.727 4.53987 77.4868 4.94287C77.2465 5.33812 76.89 5.64425 76.4173 5.86125C75.9523 6.0705 75.3749 6.17512 74.6851 6.17512H73.0925V4.55925H74.6851C75.0804 4.55925 75.3904 4.47012 75.6151 4.29187C75.8399 4.11362 75.9523 3.85787 75.9523 3.52462C75.9523 3.18362 75.8399 2.924 75.6151 2.74575C75.3904 2.5675 75.0804 2.47837 74.6851 2.47837H73.0925ZM79.5645 7.43062L79.704 5.931H83.7379L83.8658 7.43062H79.5645ZM81.6919 3.85012L80.5527 6.47737L80.6457 6.9075L79.6343 9H77.4139L81.6919 0.351002L85.9815 9H83.7495L82.773 6.98887L82.8428 6.489L81.6919 3.85012ZM86.7761 0.862501H88.7407V6.18675C88.7407 6.5975 88.8492 6.93075 89.0662 7.1865C89.2832 7.44225 89.6087 7.57012 90.0427 7.57012C90.4845 7.57012 90.8139 7.44225 91.0309 7.1865C91.2479 6.93075 91.3564 6.5975 91.3564 6.18675V0.862501H93.321V6.32625C93.321 6.83775 93.2357 7.28337 93.0652 7.66312C92.9025 8.04287 92.67 8.35675 92.3677 8.60475C92.0732 8.845 91.7245 9.02713 91.3215 9.15113C90.9262 9.27513 90.5 9.33713 90.0427 9.33713C89.5855 9.33713 89.1592 9.27513 88.764 9.15113C88.3687 9.02713 88.02 8.845 87.7177 8.60475C87.4232 8.35675 87.1907 8.04287 87.0202 7.66312C86.8575 7.28337 86.7761 6.83775 86.7761 6.32625V0.862501ZM95.8805 6.14025C96.0432 6.43475 96.2254 6.6905 96.4269 6.9075C96.6361 7.1245 96.8609 7.29112 97.1011 7.40737C97.3491 7.52362 97.6087 7.58175 97.88 7.58175C98.1667 7.58175 98.4031 7.512 98.5891 7.3725C98.7751 7.22525 98.8681 7.02762 98.8681 6.77962C98.8681 6.57037 98.8139 6.40375 98.7054 6.27975C98.5969 6.148 98.4225 6.024 98.1822 5.90775C97.942 5.7915 97.6242 5.65975 97.229 5.5125C97.0352 5.44275 96.8105 5.34587 96.5547 5.22187C96.3067 5.09787 96.0704 4.939 95.8456 4.74525C95.6209 4.54375 95.4349 4.3035 95.2876 4.0245C95.1404 3.73775 95.0667 3.39287 95.0667 2.98987C95.0667 2.50937 95.1907 2.09475 95.4387 1.746C95.6945 1.39725 96.0355 1.13375 96.4617 0.955502C96.8957 0.769502 97.3762 0.676502 97.9032 0.676502C98.4457 0.676502 98.9146 0.765627 99.3099 0.943877C99.7129 1.12212 100.046 1.34687 100.31 1.61812C100.573 1.88937 100.775 2.1645 100.914 2.4435L99.4145 3.2805C99.2982 3.08675 99.1626 2.92012 99.0076 2.78062C98.8604 2.63337 98.6937 2.521 98.5077 2.4435C98.3295 2.35825 98.1357 2.31562 97.9265 2.31562C97.6475 2.31562 97.4344 2.37762 97.2871 2.50162C97.1399 2.61787 97.0662 2.76512 97.0662 2.94337C97.0662 3.12937 97.136 3.29212 97.2755 3.43162C97.4227 3.57112 97.6281 3.699 97.8916 3.81525C98.1629 3.9315 98.4884 4.0555 98.8681 4.18725C99.1549 4.29575 99.4222 4.42362 99.6702 4.57087C99.9182 4.71037 100.135 4.88087 100.321 5.08237C100.515 5.28387 100.666 5.51637 100.775 5.77987C100.883 6.04337 100.937 6.34562 100.937 6.68662C100.937 7.09737 100.852 7.4655 100.682 7.791C100.519 8.10875 100.294 8.37612 100.007 8.59312C99.7284 8.81012 99.4067 8.97287 99.0425 9.08138C98.686 9.19763 98.3179 9.25575 97.9381 9.25575C97.4111 9.25575 96.919 9.16275 96.4617 8.97675C96.0122 8.783 95.6209 8.52337 95.2876 8.19787C94.9544 7.87237 94.6947 7.51587 94.5087 7.12837L95.8805 6.14025ZM103.553 9V7.38412H107.657V9H103.553ZM103.553 2.47837V0.862501H107.657V2.47837H103.553ZM103.553 5.5125V3.9315H107.424V5.5125H103.553ZM102.251 0.862501H104.134V9H102.251V0.862501ZM71.8603 11.8625H73.8249V20H71.8603V11.8625ZM73.0925 13.4784V11.8625H74.6851C75.3749 11.8625 75.9523 11.971 76.4173 12.188C76.89 12.3972 77.2465 12.6995 77.4868 13.0947C77.727 13.49 77.8471 13.9666 77.8471 14.5246C77.8471 15.0671 77.727 15.5399 77.4868 15.9429C77.2465 16.3381 76.89 16.6442 76.4173 16.8612C75.9523 17.0705 75.3749 17.1751 74.6851 17.1751H73.0925V15.5592H74.6851C75.0804 15.5592 75.3904 15.4701 75.6151 15.2919C75.8399 15.1136 75.9523 14.8579 75.9523 14.5246C75.9523 14.1836 75.8399 13.924 75.6151 13.7457C75.3904 13.5675 75.0804 13.4784 74.6851 13.4784H73.0925ZM79.1032 11.8625H81.0678V18.3144H84.3344V20H79.1032V11.8625ZM86.8756 18.4306L87.0151 16.931H91.0489L91.1768 18.4306H86.8756ZM89.0029 14.8501L87.8637 17.4774L87.9567 17.9075L86.9453 20H84.7249L89.0029 11.351L93.2926 20H91.0606L90.0841 17.9889L90.1538 17.489L89.0029 14.8501ZM97.8965 11.8625H100.152L97.3037 16.6869V20H95.3042V16.6985L92.456 11.8625H94.7113L96.3039 14.9199L97.8965 11.8625ZM75.8941 27.0589V25.5476H80.0094C80.0481 26.1986 79.9823 26.807 79.8118 27.3727C79.6413 27.9385 79.3778 28.4384 79.0213 28.8724C78.6648 29.3064 78.2191 29.6474 77.6844 29.8954C77.1496 30.1356 76.5374 30.2558 75.8476 30.2558C75.1966 30.2558 74.5999 30.155 74.0574 29.9535C73.5149 29.7442 73.046 29.4497 72.6508 29.07C72.2555 28.6825 71.9455 28.2252 71.7208 27.6982C71.5038 27.1635 71.3953 26.5745 71.3953 25.9312C71.3953 25.288 71.5076 24.7067 71.7324 24.1875C71.9571 23.6605 72.2749 23.211 72.6856 22.839C73.0964 22.467 73.5769 22.1802 74.1271 21.9787C74.6774 21.7772 75.2741 21.6765 75.9174 21.6765C76.4909 21.6765 77.0063 21.7579 77.4635 21.9206C77.9208 22.0834 78.3238 22.312 78.6725 22.6065C79.029 22.8932 79.3351 23.2265 79.5909 23.6062L77.8471 24.513C77.6611 24.1875 77.4093 23.9201 77.0915 23.7109C76.7815 23.4939 76.3901 23.3854 75.9174 23.3854C75.4679 23.3854 75.0533 23.4861 74.6735 23.6876C74.3015 23.8891 74.0031 24.1797 73.7784 24.5595C73.5614 24.9315 73.4529 25.3887 73.4529 25.9312C73.4529 26.466 73.5575 26.931 73.7668 27.3262C73.9838 27.7137 74.2744 28.016 74.6386 28.233C75.0106 28.4422 75.4369 28.5469 75.9174 28.5469C76.2119 28.5469 76.4793 28.512 76.7195 28.4422C76.9598 28.3647 77.1651 28.2601 77.3356 28.1284C77.5061 27.9889 77.6495 27.83 77.7658 27.6517C77.8898 27.4657 77.9866 27.2681 78.0564 27.0589H75.8941ZM82.2551 28.4306L82.3946 26.931H86.4285L86.5563 28.4306H82.2551ZM84.3825 24.8501L83.2432 27.4774L83.3362 27.9075L82.3248 30H80.1045L84.3825 21.351L88.6721 30H86.4401L85.4636 27.9889L85.5333 27.489L84.3825 24.8501ZM91.6173 25.8499L91.1291 30H89.0598L90.3734 21.4556L93.8377 26.4195L97.3136 21.4556L98.6272 30H96.5579L96.0697 25.8499L93.8377 29.2444L91.6173 25.8499ZM101.18 30V28.3841H105.284V30H101.18ZM101.18 23.4784V21.8625H105.284V23.4784H101.18ZM101.18 26.5125V24.9315H105.051V26.5125H101.18ZM99.8783 21.8625H101.762V30H99.8783V21.8625Z" fill="#EBF7F6"/>
<path fill-rule="evenodd" clip-rule="evenodd" d="M3 3H40V14H43V3V0H40H3H0V3V28V31H3H40V28H3V3Z" fill="url(#paint0_linear_2_38)"/>
<rect x="40" y="14" width="3" height="3.05228" fill="#08D9D6"/>
<defs>
<linearGradient id="paint0_linear_2_38" x1="11.5" y1="9.5" x2="43.5" y2="15.5" gradientUnits="userSpaceOnUse">
<stop stop-color="#EBF7F6"/>
<stop offset="1" stop-color="#08D9D6"/>
</linearGradient>
</defs>
</svg>
