<svg id="圖層_1" data-name="圖層 1" xmlns="http://www.w3.org/2000/svg" viewBox="0 0 142.01 12.78"><defs><style>.cls-1{fill:#000000;}.cls-2{fill:#ffce00;}</style></defs><title>logo</title><path class="cls-1" d="M125.23,22.38v2.28h-5.39c-1.13,0-1.9,1-1.9,2.38V34.4h-2.33V27.16a4.43,4.43,0,0,1,4.54-4.78h5.07Z" transform="translate(-99.39 -22.35)"/><polygon class="cls-1" points="38.78 0.03 38.78 12.05 36.44 12.05 36.44 7.05 29.76 7.05 29.76 12.05 27.43 12.05 27.43 0.03 29.76 0.03 29.76 4.77 36.44 4.77 36.44 0.03 38.78 0.03"/><rect class="cls-1" x="41.56" y="0.03" width="2.33" height="12.02"/><path class="cls-1" d="M146.07,34.4v-12h6.73a4.43,4.43,0,0,1,4.54,4.78V34.4H155V27c0-1.42-.77-2.38-1.9-2.38H148.4V34.4h-2.33Z" transform="translate(-99.39 -22.35)"/><path class="cls-1" d="M171.82,27.16v2.45a4.43,4.43,0,0,1-4.54,4.78h-3.22a4.43,4.43,0,0,1-4.54-4.78V27.16a4.43,4.43,0,0,1,4.54-4.78h3.22a4.43,4.43,0,0,1,4.54,4.78m-4.23-2.5h-3.85c-1.13,0-1.9,1-1.9,2.38v2.69c0,1.42.77,2.38,1.9,2.38h3.85c1.13,0,1.9-1,1.9-2.38V27c0-1.42-.77-2.38-1.9-2.38" transform="translate(-99.39 -22.35)"/><path class="cls-1" d="M185.26,31c0,2.21-1.56,3.37-4.54,3.37h-6.78V32.12H181c1.25,0,1.9-.36,1.9-1.08,0-1-.43-1.3-4.45-1.54-3.13-.24-4.64-1.25-4.64-3.75,0-2.21,1.56-3.37,4.54-3.37h6.49v2.28h-6.8c-1.25,0-1.9.36-1.9,1.08,0,1,.31,1.23,3.58,1.44,4.4,0.29,5.51,1.42,5.51,3.85" transform="translate(-99.39 -22.35)"/><polygon class="cls-1" points="99.53 0.03 99.53 12.05 97.19 12.05 97.19 7.05 90.51 7.05 90.51 12.05 88.18 12.05 88.18 0.03 90.51 0.03 90.51 4.77 97.19 4.77 97.19 0.03 99.53 0.03"/><rect class="cls-1" x="102.32" y="0.03" width="2.33" height="12.02"/><path class="cls-1" d="M208.62,27v0.07h7.67v2.26h-7.67v0.36c0,1.42.77,2.38,1.9,2.38h5.77V34.4h-5.46a4.43,4.43,0,0,1-4.54-4.78V27.16a4.43,4.43,0,0,1,4.54-4.78h5.46v2.28h-5.77c-1.13,0-1.9,1-1.9,2.38" transform="translate(-99.39 -22.35)"/><path class="cls-1" d="M228.27,34.4h-5.07a4.43,4.43,0,0,1-4.54-4.78V22.38H221v7.36c0,1.42.77,2.38,1.9,2.38h5.39V34.4Z" transform="translate(-99.39 -22.35)"/><path class="cls-1" d="M241.39,27.16v2.45a4.43,4.43,0,0,1-4.54,4.78h-7v-12h7a4.43,4.43,0,0,1,4.54,4.78m-4.23-2.5h-5v7.45h5c1.13,0,1.9-1,1.9-2.38V27c0-1.42-.77-2.38-1.9-2.38" transform="translate(-99.39 -22.35)"/><polygon class="cls-2" points="5.88 0 6.7 2.15 9.28 2.15 9.27 7.52 5.71 10.12 2.15 7.52 2.15 2.15 4.73 2.15 5.55 0 0 0 0 8.62 5.71 12.78 11.43 8.62 11.43 0 5.88 0"/></svg>